# xmcd CD database file
#
# Track frame offsets:
#	150
#	12111
#	24337
#	32362
#	46756
#	59740
#	73882
#	87475
#	99991
#	113551
#	123804
#	138916
#	149357
#	158640
#	171070
#	183596
#	194586
#
# Disc length: 2738 seconds
#
# Revision: 1
# Processed by: cddbd v1.5.2PL0 Copyright (c) Steve Scherf et al.
# Submitted via: CDex 1.70beta2
#
DISCID=df0ab011
DTITLE=Various Artist - Country Roots - CD 1
DYEAR=2007
DGENRE=Country Classics
TTITLE0=Floyd Tillman - Drivin' Nails In My Coffin
TTITLE1=Hank Williams - Cold Cold Heart
TTITLE2=Gene Autry - 32 Feet And 8 Little Tails
TTITLE3=Red Foley - There'll Be Peace In The Walley For Me
TTITLE4=Roy Acuff - Great Spreckled Bird
TTITLE5=Gene Autry - Don't Fence Me In
TTITLE6=Merle Travis - Merle's Boogie Woogie
TTITLE7=Bill Haley - Green Tree Boogie
TTITLE8=The Carter Family - I'm Thinking Tonight Of My Blue
TTITLE9=Bob Wills - Liza Pull Down The Shades
TTITLE10=The Carter Family - Meet Me By The Moonlight
TTITLE11=Red Foley And Ernest Tubb - Kentucky Waltz
TTITLE12=Gene Autry - In Old Capistrano
TTITLE13=Roy Acuff - Wreck On The Highway
TTITLE14=The Carter Family - Single Girl, Married Girl
TTITLE15=Hank Williams - My Heart Would Know
TTITLE16=Roy Acuff - Not A Word From Home
EXTD=YEAR: 2007
EXTT0=
EXTT1=
EXTT2=
EXTT3=
EXTT4=
EXTT5=
EXTT6=
EXTT7=
EXTT8=
EXTT9=
EXTT10=
EXTT11=
EXTT12=
EXTT13=
EXTT14=
EXTT15=
EXTT16=
PLAYORDER=
